<svg xmlns="http://www.w3.org/2000/svg" height="40px" viewBox="0 -960 960 960" width="40px" fill="#1f1f1f"><path d="M480-273.56q101.31-87.13 153.73-171.77 52.42-84.64 52.42-156 0-90.05-57.87-147.44-57.87-57.38-148.28-57.38t-148.28 57.38q-57.87 57.39-57.87 147.44 0 71.2 52.42 155.84T480-273.56Zm0 43.56q-118.85-96.92-179.42-191.97Q240-517.03 240-601.33q0-104.95 67.56-171.81Q375.13-840 480-840t172.44 66.86Q720-706.28 720-601.33q0 84.3-60.58 179.23Q598.85-327.18 480-230Zm-.15-305.38q27 0 45.88-18.89 18.89-18.88 18.89-45.73 0-26.85-18.89-45.73-18.88-18.89-45.88-18.89-26.85 0-45.66 18.89-18.81 18.88-18.81 45.73 0 26.85 18.81 45.73 18.81 18.89 45.66 18.89ZM240-120v-33.85h480V-120H240Zm240-480Z"/></svg>